<?xml version="1.0" encoding="UTF-8"?>
<svg id="Layer_1" data-name="Layer 1" xmlns="http://www.w3.org/2000/svg" viewBox="0 0 1393 1538">
  <defs>
    <style>
      .cls-1, .cls-2, .cls-3 {
        fill: #f4ede3;
      }
    </style>
  </defs>
  <path class="cls-3" d="M1391,794c2.71,3.21-.02,6.42,0,9,.17,20.09-8.55,38.28-20.86,53.3-.71,2.44.34,6.07.69,8.64,5.42,39.31-16.53,76.4-53.49,90.58-25.26,9.7-52.42,7.19-75.63-7.45-37.25,18.42-76.11,17.87-116.45,10.51l-55.4-5.25c-39.5-3.74-77.54-11.17-114.45-25.53-15.4-5.99-29.55-12.46-43.74-20.65-.74-.42-1.66-.37-1.98-.11s-1.18,1.3-.67,2.06c15.32,22.72,29,45.65,39.78,71.02,29.45,69.27,30.23,137.66,4.57,208.15-27.71,72.77-82.43,120.53-152.79,150.07-3.81,56.03-19.08,112.73-60.39,151.55-58.45,54.25-141.26,47.26-197.68-6.31-20.67-19.62-35.1-43.3-45.36-69.97-16.51-42.38-24.82-86.62-26.04-132.75-20.98,11.63-42,20.59-64.47,27.73-10.38,27.47-22.46,53.22-38.51,77.63-14.31,21.72-30.87,40.78-51.52,56.47-25.53,19.06-55.28,29.71-87.21,28.79-42.17-1.21-81.32-19.08-110.04-49.86-34.26-36.71-49.68-86.63-46.5-136.79,4.43-70.1,31.99-156.26,80.24-208.66,13.8-14.99,29.44-26.45,47.81-35.05,9.51-4.45,18.93-7.7,28.75-11.65,2.48-1,1.71-5.36.79-7.34s-3.56-3.27-6.48-2.96l-19.05,2.06c-21.69,2.34-42.84-2.3-61.22-14.07-23.54-1.65-49.26-10.95-65.79-28.39-50.41-13.75-70.38-59.59-71.38-108.59-.15-21.94,2.27-43.28,9.61-64.03,9.46-26.74,23-50.89,42.34-71.48,14.04-71.31,54.6-134.99,103.44-187.7,56.43-59.9,121.91-110.69,194.33-149.72,18.7-10.08,37.11-18.73,56.74-25.62-22.35-52.37-17.87-111.14,11.92-158.56,12.86-20.47,34.27-42.36,56.93-50.87,5.52-10.69,9.72-20.95,16.88-30.55,29.94-40.11,69.34-71.81,114.69-93.45,96.88-46.21,215-41.57,309.76,7.61,73.8,38.3,130.88,102.31,157.93,181.29,38.37,112.38,14.23,246.65-71.35,331.82,22.35,24.1,40.06,50.81,54.39,80.03l40.13,10.77c11.36,2.95,20.82,8.26,30.52,14.42,3.09,1.96,8.61,1.67,12.23,2.64,9.48-5.67,19.39-10.6,29.37-15.62,24.74-12.44,66.31-32.89,93.64-31.95,30.23-1.07,58.92,12.89,75,38.52,12.86,20.49,15.93,44.52,10.67,68.49,21.63,16.27,35.29,41.2,35.3,67.78ZM377.89,1252.8c45.66-12,87.05-35.84,120.84-69.12,34.67-34.15,71.63-88.8,85.76-136.05l51.79,21.29,22.8,47.55c-9.51,14.12-19.47,26.04-32.15,36.6-16.45,13.69-37.61,20.13-56.19,32.59-16.49,11.06-27.98,26.77-32.95,46.1-12.37,48.06-1.31,112.39,16.07,158.31,12.78,33.77,35.92,62.48,71.29,72.76,25.27,7.34,51.21,1.54,70.8-15.74,35.72-31.53,43.64-88.77,44.41-134.05.03-1.98-.33-3.09-2.33-3.21-9.64-.59-19.11.82-28.62-.43-5.69-.75-32.86-7.75-36.23-12.72-.55-.93.69-1.65,1.68-1.28,7.99,3.03,47.23,1.98,54.62.66,24.06-4.29,46.75-13.35,68.45-24.29,53.2-26.82,90.38-70.63,105.36-128.61,22.56-87.33-11.13-156.41-63.07-223.93,5.95-18.55,12.25-35.83,19.2-53.75l22.89-59.03c.3-.77,1.01-2.79,1.89-1.68,26.43,33.54,62.4,54.8,102.21,69.06,29.65,10.62,59.78,16.08,91.18,18.66,20.06,1.65,39.24,2.92,59.14,5.92,13.89,2.09,27.17,4.4,41.23,3.67,16.53-.86,32.19-4.86,45.38-14.71,4.39-3.28,7.49-9.45,13.1-10.6,10.27-2.11,28.12,15.57,42.97,21.73,8.14,3.38,16.93.53,22.96-4.54,6.92-5.82,8.58-13.99,7.59-22.8-3.72-33.1-30.13-35.56-51.19-53.82-5.13-4.45,11.34-8.35,23.25-4.36l20.91,7.01c7.36,2.47,15.86,1.34,21.27-5,9.51-11.15,7.81-28.85-3.91-38.27-11.91-9.59-25.51-17.83-40.64-21.02-13.37-2.82-49.75,2.69-40.7-4.62,19.53-15.76,60.66-18.83,57.83-49.85-1.06-11.61-9.38-19.69-21.28-20.76-18.93-1.69-60.4,20.06-78.88,29.28-10.42,5.19-19.82,10.92-29.29,17.43-6.06,4.16-12.51,5.47-19.43,2.88l-31.1-11.68c-14.9-5.6-29.25-11.07-44.98-14.05l-50.35-9.54c-20.01-52.97-55.99-108.76-109.42-131.77-2.29-.99-3.78-1.93-3.68-4.46.07-1.63,1.42-2.77,3.17-3.79l22.96-13.32c34.86-20.23,59.53-53.58,77.05-90.14,16.58-34.59,24.99-71.72,25.8-110.27,2.15-101.92-49.89-191.13-139.55-238.85-73.05-38.88-162.2-46.33-239.9-16.32-43.78,16.91-82.24,45.08-109.91,82.92-7.8,10.67-18.82,41.84-27.1,47.12-5.43,3.46-12.88,1.38-18.52,4.56-11.9,6.71-20.99,17.26-27.83,29.23-17.37,30.38-18.95,67.13-4.34,98.83,4.57,9.91,12.78,16.23,22.89,19.36,3.32,12.28,6.39,23.74,9.06,36.19,1.42,6.63-2.87,15.21-10.3,15.43-25.35.72-49.45,5.5-72.9,15.67-25.87,11.22-49.96,24.61-73.99,39.79-48.01,30.34-91.71,65.99-131.14,106.77-48.45,50.09-90.88,114.56-97.95,185.04-20.65,12.65-37.05,43.08-43.5,65.56-6.75,23.53-9.55,72.5,16.95,85.57,2.8,1.38,5.69,1.76,8.01.01,1.92-1.45,2.93-3.9,2.84-6.83l-.67-22.41c-.52-17.52,2.56-34.54,7.96-50.13l-1.28,38.5c-.68,20.4,1.56,50.26,20.28,62.33,8.49,5.48,27.83,9.63,26.11,3.1l-6.62-25.2c-9.88-37.58,9.57-84.06,15.31-80.7,2.19,1.28-2.2,23.79-2.74,28.09-2.92,23.44-1.75,60.44,10.37,81.43,5.77,9.98,17.32,16.65,28.77,13.33,6.11-1.77,9.01-8.49,10.61-14.23,7.33-26.31,1.25-53.25,15.97-77.99.7-1.17,3.23-4.48,4.42-2.84,9.46,13.06,8.5,34.72,16.71,50.34,2.35,4.47,6.55,8.98,11.73,8.76,11.75-.5,19.59-9.3,22.26-20.17,2.5-10.17.74-19.95,1.04-30.21.68-23.23-8.55-44.11-12.34-66.28,1.17-21.37,14.33-42.83,25.95-60.52,17.2-26.17,39.81-46.91,65.86-63.29,5.04-3.17,27.26-14.85,30.54-8.9.72,1.31.55,3.47-.28,5.04-23.82,45.13-46.4,101.16-47.3,152.85-.27,15.82-.17,31.27,5.34,46.09,7.5,20.19,9.58,41.52,1.71,62.07-7.97,20.81-17,40.48-27.3,60.25-11.77,22.61-25.16,43.32-41.3,62.84-27.7,33.49-53.28,23.23-81.16,52.7-10.6,11.2-19.04,23.07-26.44,36.9-21.71,40.57-35.21,85.09-39.36,131.03-5.51,60.87,28.88,121.06,92.68,126.18,66.61,5.35,108.52-82.45,126.28-134.6-4.68-2.1-8.69-1.82-13.31-2.47-29.17-4.07-55.23-20.56-70.02-45.87-.42-.72-.69-1.27-.62-1.56,1.7-6.43,44.54,44.11,108.58,27.28Z"/>
  <path class="cls-3" d="M989.15,1454.14c0,29.18-23.65,52.83-52.83,52.83s-52.83-23.65-52.83-52.83,23.65-52.83,52.83-52.83,52.83,23.65,52.83,52.83ZM977.83,1454.14c0-22.93-18.59-41.52-41.52-41.52s-41.52,18.59-41.52,41.52,18.59,41.52,41.52,41.52,41.52-18.59,41.52-41.52Z"/>
  <path class="cls-3" d="M919.08,443.3c-64.06,39.56-147.33,36.42-212.82,1.6-46.32-24.64-84.38-67.44-96.93-118.93s3.85-105.44,43.39-141.42c23.1-21.02,51.15-35,81.98-42.02,70.56-16.07,148.59,4.74,201.14,54.58,21.5,20.4,37.88,44.45,47.45,72.54,23.02,67.59-3.81,136.35-64.21,173.66ZM791.81,396.33l33.21-44.12c1.97-2.62,4.28-5.84,7.65-6.47l60.73-11.34c5-.93,8.39-5.48,9.26-9.26,1.19-5.14-.72-9.82-4.89-12.97l-47.86-36.12c-2.46-1.86-3.58-4.86-4.13-7.88l-10.52-57.34c-1-5.43-4.82-8.98-9.47-10.2s-9.52.44-12.64,4.58l-34.8,46.09c-2.17,2.88-4.57,5.23-8.27,5.91l-59.03,10.86c-4.83.89-8.24,4.66-9.42,8.27-1.47,4.48-.8,9.98,3.12,12.96l48.89,37.04c2.8,2.12,3.97,5.22,4.58,8.6l10.48,57.22c1.02,5.58,5.42,9.18,9.87,9.94,5.56.95,9.7-1.08,13.25-5.79Z"/>
  <path class="cls-3" d="M947.25,1478.18l-6.32-13.01c-2-4.12-5.92-6.04-10.55-4.51l-.31,17.31c-4.48.5-8.45.49-12.79-.04l.03-47.57c11.59.8,34.59-4.33,37.12,9.75,1.1,6.09-.5,12.53-7.27,15.29,2.49,2.18,4.69,4.12,6.18,7.26l7.25,15.23c-4.34.68-8.14.32-13.34.29ZM940.32,1449.64c2.31-1.9,2.02-6.96-.12-8.57-2.85-2.15-6.57-1.31-9.73-1.02-.41,3.94-.42,6.96,0,10.91,3.02.27,6.83,1.16,9.85-1.32Z"/>
</svg>